<?xml version="1.0" encoding="UTF-8"?>
<!DOCTYPE svg PUBLIC "-//W3C//DTD SVG 1.1//EN" "http://www.w3.org/Graphics/SVG/1.1/DTD/svg11.dtd">
<svg xmlns="http://www.w3.org/2000/svg" version="1.1" width="40px" height="40px" style="shape-rendering:geometricPrecision; text-rendering:geometricPrecision; image-rendering:optimizeQuality; fill-rule:evenodd; clip-rule:evenodd" xmlns:xlink="http://www.w3.org/1999/xlink">
<g><path style="opacity:1" fill="#9ac258" d="M -0.5,-0.5 C 4.16667,-0.5 8.83333,-0.5 13.5,-0.5C 13.8039,0.14987 14.1373,0.816537 14.5,1.5C 20.6535,2.16677 26.6535,2.83343 32.5,3.5C 23.5,3.5 14.5,3.5 5.5,3.5C 5.5,7.83333 5.5,12.1667 5.5,16.5C 3.56475,17.1495 1.56475,17.4828 -0.5,17.5C -0.5,11.5 -0.5,5.5 -0.5,-0.5 Z"/></g>
<g><path style="opacity:1" fill="#9cc658" d="M 13.5,-0.5 C 22.1667,-0.5 30.8333,-0.5 39.5,-0.5C 39.5,2.16667 39.5,4.83333 39.5,7.5C 37.5648,8.14952 35.5648,8.48285 33.5,8.5C 33.7845,6.58533 33.4511,4.91866 32.5,3.5C 26.6535,2.83343 20.6535,2.16677 14.5,1.5C 14.1373,0.816537 13.8039,0.14987 13.5,-0.5 Z"/></g>
<g><path style="opacity:1" fill="#4d5b62" d="M 32.5,3.5 C 33.4511,4.91866 33.7845,6.58533 33.5,8.5C 33.5,9.16667 33.5,9.83333 33.5,10.5C 33.5,11.1667 33.5,11.8333 33.5,12.5C 33.702,14.9496 33.3686,17.283 32.5,19.5C 30.5,19.5 28.5,19.5 26.5,19.5C 19.5,19.5 12.5,19.5 5.5,19.5C 5.5,18.5 5.5,17.5 5.5,16.5C 5.5,12.1667 5.5,7.83333 5.5,3.5C 14.5,3.5 23.5,3.5 32.5,3.5 Z"/></g>
<g><path style="opacity:1" fill="#efe8e7" d="M 9.5,6.5 C 16.8333,5.16667 24.1667,5.16667 31.5,6.5C 28.4816,6.33537 25.4816,6.50204 22.5,7C 30.3738,7.90743 30.3738,9.07409 22.5,10.5C 21.1974,7.62128 19.1974,6.95461 16.5,8.5C 14.7211,6.65649 12.3878,5.98983 9.5,6.5 Z"/></g>
<g><path style="opacity:1" fill="#e42e2d" d="M 9.5,6.5 C 12.3878,5.98983 14.7211,6.65649 16.5,8.5C 14.1667,8.5 11.8333,8.5 9.5,8.5C 9.5,7.83333 9.5,7.16667 9.5,6.5 Z"/></g>
<g><path style="opacity:1" fill="#91c0bd" d="M 31.5,6.5 C 31.5,8.5 31.5,10.5 31.5,12.5C 30.8333,12.5 30.1667,12.5 29.5,12.5C 26.9039,13.2653 24.2372,13.5987 21.5,13.5C 22.1098,12.609 22.4431,11.609 22.5,10.5C 30.3738,9.07409 30.3738,7.90743 22.5,7C 25.4816,6.50204 28.4816,6.33537 31.5,6.5 Z"/></g>
<g><path style="opacity:1" fill="#5bbc40" d="M 22.5,10.5 C 22.4431,11.609 22.1098,12.609 21.5,13.5C 20.2921,14.2341 18.9587,14.5674 17.5,14.5C 16.0937,14.0269 15.427,13.0269 15.5,11.5C 15.5569,10.391 15.8902,9.39105 16.5,8.5C 19.1974,6.95461 21.1974,7.62128 22.5,10.5 Z"/></g>
<g><path style="opacity:1" fill="#e4f0f1" d="M 33.5,10.5 C 37.909,9.89899 39.2424,11.5657 37.5,15.5C 36.1482,14.4756 34.8149,13.4756 33.5,12.5C 33.5,11.8333 33.5,11.1667 33.5,10.5 Z"/></g>
<g><path style="opacity:1" fill="#dbb07d" d="M 15.5,11.5 C 15.427,13.0269 16.0937,14.0269 17.5,14.5C 16.6879,15.9931 15.3545,16.6598 13.5,16.5C 9.62241,15.8985 9.62241,15.0652 13.5,14C 11.0437,11.841 11.7104,11.0077 15.5,11.5 Z"/></g>
<g><path style="opacity:1" fill="#e4e0dd" d="M 9.5,8.5 C 11.8333,8.5 14.1667,8.5 16.5,8.5C 15.8902,9.39105 15.5569,10.391 15.5,11.5C 11.7104,11.0077 11.0437,11.841 13.5,14C 9.62241,15.0652 9.62241,15.8985 13.5,16.5C 15.3545,16.6598 16.6879,15.9931 17.5,14.5C 18.9587,14.5674 20.2921,14.2341 21.5,13.5C 21.5,14.5 21.5,15.5 21.5,16.5C 24.1667,16.5 26.8333,16.5 29.5,16.5C 29.5,15.1667 29.5,13.8333 29.5,12.5C 30.1667,12.5 30.8333,12.5 31.5,12.5C 31.5,14.1667 31.5,15.8333 31.5,17.5C 24.1667,17.5 16.8333,17.5 9.5,17.5C 9.5,14.5 9.5,11.5 9.5,8.5 Z"/></g>
<g><path style="opacity:1" fill="#e84a48" d="M 29.5,12.5 C 29.5,13.8333 29.5,15.1667 29.5,16.5C 26.8333,16.5 24.1667,16.5 21.5,16.5C 21.5,15.5 21.5,14.5 21.5,13.5C 24.2372,13.5987 26.9039,13.2653 29.5,12.5 Z"/></g>
<g><path style="opacity:1" fill="#609da5" d="M 5.5,16.5 C 5.5,17.5 5.5,18.5 5.5,19.5C 12.5,19.5 19.5,19.5 26.5,19.5C 26.5,19.8333 26.5,20.1667 26.5,20.5C 19.1591,20.3337 11.8258,20.5003 4.5,21C 4.04265,21.414 3.70931,21.914 3.5,22.5C 8.46712,23.329 13.4671,23.829 18.5,24C 17.6266,25.045 16.6266,25.8783 15.5,26.5C 12.1574,25.27 8.82405,25.6033 5.5,27.5C 4.59603,28.209 4.26269,29.209 4.5,30.5C 3.71679,28.9242 2.55012,27.5908 1,26.5C 0.617425,27.056 0.117425,27.3893 -0.5,27.5C -0.5,24.1667 -0.5,20.8333 -0.5,17.5C 1.56475,17.4828 3.56475,17.1495 5.5,16.5 Z"/></g>
<g><path style="opacity:1" fill="#e5e7e6" d="M 26.5,20.5 C 27.5511,21.2223 28.2178,22.2223 28.5,23.5C 26.1432,23.3367 23.8098,23.5034 21.5,24C 24.9419,25.1836 28.2752,26.3503 31.5,27.5C 29.1667,27.5 26.8333,27.5 24.5,27.5C 23.5,27.5 22.5,27.5 21.5,27.5C 20.1667,27.5 18.8333,27.5 17.5,27.5C 17.5,28.5 17.5,29.5 17.5,30.5C 17.1667,30.5 16.8333,30.5 16.5,30.5C 16.5674,29.0413 16.2341,27.7079 15.5,26.5C 16.6266,25.8783 17.6266,25.045 18.5,24C 13.4671,23.829 8.46712,23.329 3.5,22.5C 3.70931,21.914 4.04265,21.414 4.5,21C 11.8258,20.5003 19.1591,20.3337 26.5,20.5 Z"/></g>
<g><path style="opacity:1" fill="#5b9da0" d="M 39.5,7.5 C 39.5,16.1667 39.5,24.8333 39.5,33.5C 36.4045,34.5462 33.4045,35.8796 30.5,37.5C 29.5553,35.483 28.0553,35.1497 26,36.5C 24.6244,36.3158 23.7911,35.6491 23.5,34.5C 21.8941,33.6409 20.2275,33.4742 18.5,34C 19.6405,33.2588 19.6405,32.4255 18.5,31.5C 19.325,30.6143 20.325,30.281 21.5,30.5C 22.1667,30.5 22.8333,30.5 23.5,30.5C 26.1667,30.5 28.8333,30.5 31.5,30.5C 30.8592,31.4822 30.1925,32.4822 29.5,33.5C 32.089,34.205 34.7557,34.205 37.5,33.5C 37.5323,31.3812 36.5323,30.0478 34.5,29.5C 34.0269,28.0937 33.0269,27.427 31.5,27.5C 28.2752,26.3503 24.9419,25.1836 21.5,24C 23.8098,23.5034 26.1432,23.3367 28.5,23.5C 32.3508,26.581 35.3508,25.9143 37.5,21.5C 35.9783,20.438 34.3117,19.7713 32.5,19.5C 33.3686,17.283 33.702,14.9496 33.5,12.5C 34.8149,13.4756 36.1482,14.4756 37.5,15.5C 39.2424,11.5657 37.909,9.89899 33.5,10.5C 33.5,9.83333 33.5,9.16667 33.5,8.5C 35.5648,8.48285 37.5648,8.14952 39.5,7.5 Z"/></g>
<g><path style="opacity:1" fill="#be8363" d="M 26.5,19.5 C 28.5,19.5 30.5,19.5 32.5,19.5C 34.3117,19.7713 35.9783,20.438 37.5,21.5C 35.3508,25.9143 32.3508,26.581 28.5,23.5C 28.2178,22.2223 27.5511,21.2223 26.5,20.5C 26.5,20.1667 26.5,19.8333 26.5,19.5 Z"/></g>
<g><path style="opacity:1" fill="#b76536" d="M 15.5,26.5 C 16.2341,27.7079 16.5674,29.0413 16.5,30.5C 12.8333,31.8333 9.16667,31.8333 5.5,30.5C 5.5,29.5 5.5,28.5 5.5,27.5C 8.82405,25.6033 12.1574,25.27 15.5,26.5 Z"/></g>
<g><path style="opacity:1" fill="#4aa0b0" d="M 4.5,30.5 C 4.5,30.8333 4.5,31.1667 4.5,31.5C 5.16667,32.8333 6.16667,33.8333 7.5,34.5C 10.2589,34.9333 11.5922,36.6 11.5,39.5C 7.5,39.5 3.5,39.5 -0.5,39.5C -0.5,35.5 -0.5,31.5 -0.5,27.5C 0.117425,27.3893 0.617425,27.056 1,26.5C 2.55012,27.5908 3.71679,28.9242 4.5,30.5 Z"/></g>
<g><path style="opacity:1" fill="#a8a84d" d="M 21.5,27.5 C 22.5,27.5 23.5,27.5 24.5,27.5C 24.4431,28.609 24.1098,29.609 23.5,30.5C 22.8333,30.5 22.1667,30.5 21.5,30.5C 21.5,29.5 21.5,28.5 21.5,27.5 Z"/></g>
<g><path style="opacity:1" fill="#c57932" d="M 24.5,27.5 C 26.8333,27.5 29.1667,27.5 31.5,27.5C 33.0269,27.427 34.0269,28.0937 34.5,29.5C 33.791,30.404 32.791,30.7373 31.5,30.5C 28.8333,30.5 26.1667,30.5 23.5,30.5C 24.1098,29.609 24.4431,28.609 24.5,27.5 Z"/></g>
<g><path style="opacity:1" fill="#c3a9a0" d="M 5.5,27.5 C 5.5,28.5 5.5,29.5 5.5,30.5C 9.16667,31.8333 12.8333,31.8333 16.5,30.5C 15.0539,31.9402 13.2206,32.6068 11,32.5C 8.813,32.2115 6.64634,31.8782 4.5,31.5C 4.5,31.1667 4.5,30.8333 4.5,30.5C 4.26269,29.209 4.59603,28.209 5.5,27.5 Z"/></g>
<g><path style="opacity:1" fill="#da9e28" d="M 34.5,29.5 C 36.5323,30.0478 37.5323,31.3812 37.5,33.5C 34.7557,34.205 32.089,34.205 29.5,33.5C 30.1925,32.4822 30.8592,31.4822 31.5,30.5C 32.791,30.7373 33.791,30.404 34.5,29.5 Z"/></g>
<g><path style="opacity:1" fill="#a45940" d="M 16.5,30.5 C 16.8333,30.5 17.1667,30.5 17.5,30.5C 17.4894,32.0174 16.8228,33.1841 15.5,34C 12.854,34.4974 10.1873,34.6641 7.5,34.5C 6.16667,33.8333 5.16667,32.8333 4.5,31.5C 6.64634,31.8782 8.813,32.2115 11,32.5C 13.2206,32.6068 15.0539,31.9402 16.5,30.5 Z"/></g>
<g><path style="opacity:1" fill="#959837" d="M 23.5,34.5 C 23.7911,33.3509 24.6244,32.6842 26,32.5C 26.8333,32.8333 27.6667,33.1667 28.5,33.5C 26.9547,34.4519 25.288,34.7852 23.5,34.5 Z"/></g>
<g><path style="opacity:1" fill="#4d9eac" d="M 21.5,27.5 C 21.5,28.5 21.5,29.5 21.5,30.5C 20.325,30.281 19.325,30.6143 18.5,31.5C 19.6405,32.4255 19.6405,33.2588 18.5,34C 20.2275,33.4742 21.8941,33.6409 23.5,34.5C 23.7911,35.6491 24.6244,36.3158 26,36.5C 28.0553,35.1497 29.5553,35.483 30.5,37.5C 33.4045,35.8796 36.4045,34.5462 39.5,33.5C 39.5,35.5 39.5,37.5 39.5,39.5C 30.1667,39.5 20.8333,39.5 11.5,39.5C 11.5922,36.6 10.2589,34.9333 7.5,34.5C 10.1873,34.6641 12.854,34.4974 15.5,34C 16.8228,33.1841 17.4894,32.0174 17.5,30.5C 17.5,29.5 17.5,28.5 17.5,27.5C 18.8333,27.5 20.1667,27.5 21.5,27.5 Z"/></g>
</svg>
